# xmcd CD database file
#
# Track frame offsets:
#	150
#	25452
#	41462
#	68889
#	90857
#	110955
#	126441
#	146418
#	170540
#	194109
#	216082
#	231795
#	251174
#
# Disc length: 3632 seconds
#
# Revision: 0
# Processed by: cddbd v1.5.2PL0 Copyright (c) Steve Scherf et al.
# Submitted via: CDex 1.70beta2
#
DISCID=c40e2e0d
DTITLE=Johnny Barnes - The Thin Blues Line
DYEAR=2010
DGENRE=Blues
TTITLE0=I am the Blues
TTITLE1=I just want to make love to you
TTITLE2=Back door man
TTITLE3=Let me love you, baby
TTITLE4=I can't quit you baby
TTITLE5=Hoochie Coochie Man
TTITLE6=I'm Ready
TTITLE7=Mellow Down Easy
TTITLE8=I aint superstitious
TTITLE9=You shook me
TTITLE10=Evil
TTITLE11=Third Degree
TTITLE12=Little Red Rooster
EXTD=YEAR: 2010
EXTT0=
EXTT1=
EXTT2=
EXTT3=
EXTT4=
EXTT5=
EXTT6=
EXTT7=
EXTT8=
EXTT9=
EXTT10=
EXTT11=
EXTT12=
PLAYORDER=
